<?xml version="1.0" encoding="UTF-8"?>
<svg width="32" height="32" viewBox="0 0 32 32" fill="none" xmlns="http://www.w3.org/2000/svg">
  <path d="M29.7 9.2C29.4 8.1 28.5 7.2 27.4 6.9C25.2 6.3 16 6.3 16 6.3C16 6.3 6.8 6.3 4.6 6.9C3.5 7.2 2.6 8.1 2.3 9.2C1.7 11.4 1.7 16 1.7 16C1.7 16 1.7 20.6 2.3 22.8C2.6 23.9 3.5 24.8 4.6 25.1C6.8 25.7 16 25.7 16 25.7C16 25.7 25.2 25.7 27.4 25.1C28.5 24.8 29.4 23.9 29.7 22.8C30.3 20.6 30.3 16 30.3 16C30.3 16 30.3 11.4 29.7 9.2Z" stroke="#ffffff" stroke-width="2"/>
  <path d="M13 20.2L20.5 16L13 11.8V20.2Z" fill="#ffffff"/>
</svg> 